<svg xmlns="http://www.w3.org/2000/svg" width="25" height="24" fill="none"><mask id="a" width="25" height="24" x="0" y="0" maskUnits="userSpaceOnUse" style="mask-type:luminance"><path fill="#fff" fill-rule="evenodd" d="M.333 0h24v24h-24V0Z" clip-rule="evenodd"/></mask><g mask="url(#a)"><path fill="#FF00C7" fill-rule="evenodd" d="M24.333 12.073c0-6.668-5.372-12.074-12-12.074S.332 5.405.332 12.073c0 6.026 4.389 11.021 10.126 11.927v-8.437H7.41v-3.49h3.047v-2.66c0-3.026 1.791-4.698 4.533-4.698 1.312 0 2.686.236 2.686.236v2.972h-1.514c-1.49 0-1.955.93-1.955 1.885v2.265h3.328l-.532 3.49h-2.796V24c5.737-.906 10.125-5.9 10.125-11.927Z" clip-rule="evenodd"/></g></svg>
