<svg width="25" height="24" viewBox="0 0 25 24" fill="none" xmlns="http://www.w3.org/2000/svg">
    <path fill-rule="evenodd" clip-rule="evenodd" d="M8.03456 0.0712286C9.31591 0.01385 9.72485 0 12.9873 0C16.2497 0 16.6587 0.01385 17.94 0.0712286C19.8931 0.159275 21.6074 0.632154 22.9838 1.99242C24.3608 3.35318 24.8388 5.04783 24.9279 6.97694C24.986 8.24322 25 8.64735 25 11.8714C25 15.0955 24.986 15.4996 24.9279 16.7659C24.8388 18.696 24.3603 20.3902 22.9838 21.7504C21.6069 23.1112 19.8916 23.5836 17.94 23.6716C16.6587 23.729 16.2497 23.7429 12.9873 23.7429C9.72485 23.7429 9.31591 23.729 8.03456 23.6716C6.0815 23.5836 4.36719 23.1107 2.99074 21.7504C1.61378 20.3897 1.13578 18.695 1.04669 16.7659C0.988624 15.4996 0.974609 15.0955 0.974609 11.8714C0.974609 8.64735 0.988624 8.24322 1.04669 6.97694C1.13578 5.04684 1.61428 3.35269 2.99074 1.99242C4.36769 0.631659 6.0825 0.159275 8.03456 0.0712286ZM17.8414 2.20809C16.5746 2.15071 16.1947 2.13884 12.9873 2.13884C9.7799 2.13884 9.4 2.1512 8.13317 2.20809C6.76622 2.26992 5.49738 2.54049 4.52135 3.50504C3.54532 4.46959 3.27153 5.72351 3.20897 7.07438C3.15091 8.32632 3.13889 8.70176 3.13889 11.8714C3.13889 15.0411 3.15141 15.4165 3.20897 16.6685C3.27153 18.0193 3.54532 19.2733 4.52135 20.2378C5.49738 21.2024 6.76622 21.4729 8.13317 21.5348C9.3995 21.5921 9.7794 21.604 12.9873 21.604C16.1952 21.604 16.5751 21.5917 17.8414 21.5348C19.2084 21.4729 20.4772 21.2024 21.4532 20.2378C22.4293 19.2733 22.703 18.0193 22.7656 16.6685C22.8237 15.4165 22.8357 15.0411 22.8357 11.8714C22.8357 8.70176 22.8232 8.32632 22.7656 7.07438C22.703 5.72351 22.4293 4.46959 21.4532 3.50504C20.4772 2.54049 19.2084 2.26992 17.8414 2.20809Z" fill="#FF00C7"/>
    <path fill-rule="evenodd" clip-rule="evenodd" d="M6.62793 11.8714C6.62793 8.40056 9.47491 5.58655 12.9876 5.58655C16.5003 5.58655 19.3472 8.40005 19.3472 11.8714C19.3472 15.3428 16.5003 18.1563 12.9876 18.1563C9.47491 18.1563 6.62793 15.3423 6.62793 11.8714ZM8.85928 11.8714C8.85928 14.1245 10.7077 15.9512 12.9876 15.9512C15.2674 15.9512 17.1159 14.1245 17.1159 11.8714C17.1159 9.61837 15.2674 7.79166 12.9876 7.79166C10.7077 7.79166 8.85928 9.61837 8.85928 11.8714Z" fill="#FF00C7"/>
    <ellipse cx="19.3468" cy="5.58658" rx="1.41326" ry="1.39664" fill="#FF00C7"/>
</svg>
