<svg xmlns="http://www.w3.org/2000/svg" width="25" height="24" fill="none"><path fill="#FF00C7" fill-rule="evenodd" d="M3.201 0C1.487 0 .364 1.191.364 2.765c0 1.529 1.079 2.764 2.763 2.764h.03c1.743 0 2.837-1.22 2.837-2.764C5.979 1.19 4.915 0 3.2 0ZM.675 23.66h5.009V7.705H.674V23.66Zm13.43-13.69c.65-1.088 1.833-2.647 4.507-2.647 3.295 0 5.763 2.294 5.778 7.205v9.162h-5.01v-8.544c0-2.147-.723-3.603-2.54-3.603-1.375 0-2.202.986-2.557 1.941-.148.324-.177.794-.177 1.28v8.91h-5.01s.075-14.469 0-15.969h5.01V9.97Z" clip-rule="evenodd"/></svg>
