<?xml version="1.0" encoding="utf-8"?>
<!-- Generator: Adobe Illustrator 27.5.0, SVG Export Plug-In . SVG Version: 6.00 Build 0)  -->
<svg version="1.1" id="Ebene_1" xmlns="http://www.w3.org/2000/svg" xmlns:xlink="http://www.w3.org/1999/xlink" x="0px" y="0px"
	 viewBox="0 0 382.98 50.65" style="enable-background:new 0 0 382.98 50.65;" xml:space="preserve">
<style type="text/css">
	.st0{fill:#1E1E1C;}
</style>
<g>
	<g>
		<path class="st0" d="M0.05,0.18h1.24l5.09,7.66V0.18h1.24v9.67H6.38L1.29,2.19v7.66H0.05V0.18z"/>
		<path class="st0" d="M17.47,0.18h5.23v1.05H18.7v3.25h3.85v1.04H18.7V8.8h3.99v1.05h-5.23V0.18z"/>
		<path class="st0" d="M31.06,0.18h1.38l2.34,8.08l2.71-8.08h0.94l2.72,8.08l2.33-8.08h1.38L41.9,9.85h-1.39L37.97,2.5l-2.55,7.35
			h-1.39L31.06,0.18z"/>
		<path class="st0" d="M63.63,0.18h1.24v4.3h4.98v-4.3h1.24v9.67h-1.24V5.52h-4.98v4.33h-1.24V0.18z"/>
		<path class="st0" d="M83.38,9.65c-0.62-0.26-1.16-0.61-1.62-1.08c-0.46-0.46-0.83-0.99-1.09-1.6c-0.26-0.61-0.4-1.26-0.4-1.96
			c0-0.7,0.13-1.35,0.4-1.96c0.26-0.6,0.62-1.14,1.09-1.6c0.46-0.46,1-0.82,1.62-1.08C83.99,0.13,84.66,0,85.36,0
			c0.71,0,1.36,0.13,1.98,0.39c0.62,0.26,1.16,0.62,1.62,1.08c0.46,0.46,0.83,0.99,1.09,1.6c0.26,0.61,0.39,1.26,0.39,1.96
			c0,0.7-0.13,1.35-0.39,1.96c-0.26,0.61-0.63,1.14-1.09,1.6c-0.46,0.46-1,0.82-1.62,1.08c-0.61,0.26-1.27,0.39-1.98,0.39
			C84.66,10.04,83.99,9.91,83.38,9.65z M86.83,8.59c0.45-0.2,0.85-0.47,1.19-0.82c0.34-0.35,0.6-0.76,0.79-1.23
			c0.19-0.47,0.28-0.98,0.28-1.53s-0.09-1.05-0.28-1.53c-0.19-0.47-0.45-0.88-0.79-1.23c-0.34-0.35-0.74-0.62-1.19-0.82
			c-0.46-0.2-0.95-0.29-1.48-0.29c-0.53,0-1.02,0.1-1.47,0.29c-0.46,0.2-0.85,0.47-1.19,0.82c-0.34,0.35-0.6,0.76-0.79,1.23
			c-0.19,0.47-0.28,0.98-0.28,1.53s0.09,1.06,0.28,1.53c0.19,0.47,0.45,0.88,0.79,1.23c0.34,0.35,0.73,0.62,1.19,0.82
			c0.45,0.2,0.94,0.29,1.47,0.29C85.89,8.89,86.38,8.79,86.83,8.59z"/>
		<path class="st0" d="M99.62,0.18h2.86c1,0,1.8,0.25,2.38,0.74c0.59,0.49,0.88,1.17,0.88,2.05c0,0.76-0.23,1.39-0.69,1.89
			c-0.46,0.5-1.09,0.81-1.89,0.92l3.33,4.07h-1.58l-3.12-3.94h-0.95v3.94h-1.24V0.18z M102.15,4.89c0.72,0,1.29-0.17,1.7-0.51
			c0.41-0.34,0.62-0.8,0.62-1.39c0-0.58-0.2-1.04-0.61-1.37c-0.41-0.33-0.98-0.49-1.71-0.49h-1.28v3.75H102.15z"/>
		<path class="st0" d="M115.07,0.18h1.24v9.67h-1.24V0.18z"/>
		<path class="st0" d="M131.36,1.24h-5.52V0.18h7.73l-6.21,8.6h5.89v1.07h-8.1L131.36,1.24z"/>
		<path class="st0" d="M144.92,9.65c-0.62-0.26-1.16-0.61-1.62-1.08c-0.46-0.46-0.83-0.99-1.09-1.6c-0.26-0.61-0.4-1.26-0.4-1.96
			c0-0.7,0.13-1.35,0.4-1.96c0.26-0.6,0.62-1.14,1.09-1.6c0.46-0.46,1-0.82,1.62-1.08C145.53,0.13,146.19,0,146.9,0
			c0.71,0,1.36,0.13,1.98,0.39c0.62,0.26,1.16,0.62,1.62,1.08s0.83,0.99,1.09,1.6c0.26,0.61,0.39,1.26,0.39,1.96
			c0,0.7-0.13,1.35-0.39,1.96c-0.26,0.61-0.63,1.14-1.09,1.6c-0.46,0.46-1,0.82-1.62,1.08c-0.61,0.26-1.27,0.39-1.98,0.39
			C146.19,10.04,145.53,9.91,144.92,9.65z M148.37,8.59c0.45-0.2,0.85-0.47,1.19-0.82c0.34-0.35,0.6-0.76,0.79-1.23
			c0.19-0.47,0.28-0.98,0.28-1.53s-0.09-1.05-0.28-1.53c-0.19-0.47-0.45-0.88-0.79-1.23c-0.34-0.35-0.74-0.62-1.19-0.82
			c-0.46-0.2-0.95-0.29-1.48-0.29c-0.53,0-1.02,0.1-1.47,0.29c-0.46,0.2-0.85,0.47-1.19,0.82c-0.34,0.35-0.6,0.76-0.79,1.23
			c-0.19,0.47-0.28,0.98-0.28,1.53s0.09,1.06,0.28,1.53c0.19,0.47,0.45,0.88,0.79,1.23c0.34,0.35,0.73,0.62,1.19,0.82
			c0.45,0.2,0.94,0.29,1.47,0.29C147.42,8.89,147.92,8.79,148.37,8.59z"/>
		<path class="st0" d="M161.16,0.18h1.24l5.09,7.66V0.18h1.24v9.67h-1.24l-5.09-7.66v7.66h-1.24V0.18z"/>
		<path class="st0" d="M179.77,9.83c-0.39-0.13-0.73-0.3-1.02-0.49c-0.29-0.2-0.52-0.39-0.7-0.58c-0.18-0.19-0.32-0.34-0.4-0.45
			l0.68-0.92c0.09,0.11,0.22,0.25,0.38,0.42c0.16,0.17,0.36,0.34,0.59,0.52c0.23,0.17,0.5,0.32,0.81,0.43
			c0.31,0.12,0.66,0.18,1.05,0.18c0.37,0,0.71-0.06,1.01-0.19c0.3-0.12,0.54-0.31,0.72-0.56s0.27-0.55,0.27-0.91
			c0-0.41-0.11-0.75-0.34-1c-0.23-0.25-0.53-0.47-0.92-0.64c-0.39-0.18-0.82-0.35-1.29-0.53c-0.34-0.13-0.67-0.29-1.02-0.49
			s-0.63-0.45-0.86-0.76c-0.23-0.31-0.34-0.71-0.34-1.18c0-0.48,0.12-0.92,0.37-1.33c0.25-0.41,0.59-0.73,1.04-0.98
			c0.44-0.24,0.96-0.37,1.54-0.37c0.39,0,0.76,0.06,1.11,0.18s0.66,0.27,0.93,0.45c0.27,0.18,0.49,0.37,0.65,0.57l-0.58,0.87
			c-0.2-0.25-0.48-0.48-0.85-0.68c-0.37-0.2-0.78-0.3-1.24-0.3c-0.38,0-0.7,0.08-0.96,0.23c-0.26,0.15-0.46,0.34-0.6,0.58
			c-0.14,0.24-0.21,0.49-0.21,0.76c0,0.33,0.09,0.59,0.27,0.78c0.18,0.2,0.41,0.35,0.69,0.48c0.28,0.12,0.57,0.24,0.88,0.35
			c0.41,0.16,0.81,0.32,1.18,0.48c0.37,0.17,0.69,0.36,0.98,0.58c0.28,0.22,0.5,0.48,0.66,0.79c0.16,0.31,0.24,0.68,0.24,1.12
			c0,0.59-0.15,1.09-0.44,1.51c-0.29,0.42-0.69,0.73-1.19,0.95c-0.5,0.22-1.08,0.33-1.73,0.33C180.61,10.04,180.16,9.97,179.77,9.83
			z"/>
	</g>
	<g>
		<path class="st0" d="M5.24,49.55c-1.07-0.44-1.97-0.97-2.7-1.6c-0.73-0.62-1.3-1.23-1.72-1.81C0.41,45.56,0.13,45.13,0,44.86
			l1.15-1.15c0.15,0.29,0.42,0.7,0.79,1.23c0.37,0.53,0.88,1.08,1.52,1.65c0.64,0.57,1.42,1.04,2.34,1.43
			c0.92,0.39,2.01,0.58,3.27,0.58c1.19,0,2.29-0.21,3.29-0.63c1-0.42,1.81-1.05,2.41-1.88c0.61-0.83,0.91-1.86,0.91-3.09
			c0-1.02-0.21-1.89-0.63-2.59c-0.41-0.7-0.98-1.3-1.69-1.78c-0.71-0.48-1.51-0.91-2.4-1.26c-0.89-0.36-1.81-0.7-2.77-1.03
			c-0.64-0.22-1.34-0.49-2.08-0.82c-0.74-0.32-1.45-0.72-2.1-1.22c-0.66-0.49-1.2-1.11-1.62-1.85c-0.42-0.74-0.63-1.64-0.63-2.7
			c0-1.27,0.32-2.43,0.95-3.48c0.63-1.05,1.51-1.89,2.62-2.51c1.11-0.62,2.4-0.93,3.86-0.93c1.12,0,2.14,0.18,3.05,0.55
			c0.91,0.37,1.69,0.83,2.33,1.39c0.65,0.56,1.13,1.13,1.46,1.71l-1.06,1.09c-0.27-0.51-0.67-1.01-1.22-1.49s-1.2-0.87-1.97-1.18
			c-0.77-0.31-1.64-0.46-2.59-0.46c-1.23,0-2.26,0.26-3.12,0.78c-0.85,0.52-1.5,1.19-1.94,2.01c-0.44,0.82-0.66,1.67-0.66,2.55
			c0,0.83,0.18,1.53,0.53,2.1c0.36,0.57,0.82,1.05,1.39,1.43c0.57,0.39,1.2,0.71,1.88,0.98s1.35,0.51,1.99,0.74
			c1.02,0.35,2.02,0.73,3,1.15s1.86,0.91,2.66,1.49c0.79,0.58,1.43,1.3,1.89,2.15c0.47,0.85,0.7,1.89,0.7,3.12
			c0,1.56-0.38,2.88-1.14,3.96c-0.76,1.08-1.78,1.91-3.06,2.47s-2.71,0.85-4.29,0.85C7.58,50.21,6.31,49.99,5.24,49.55z"/>
		<path class="st0" d="M43.37,23.31h6.58c2.7,0,4.82,0.66,6.35,1.97c1.53,1.31,2.3,3.1,2.3,5.36c0,1.49-0.35,2.81-1.04,3.96
			c-0.69,1.15-1.68,2.04-2.97,2.7c-1.29,0.65-2.83,0.98-4.63,0.98h-4.77V49.7h-1.81V23.31z M49.62,36.74c2.22,0,3.97-0.56,5.25-1.69
			s1.91-2.59,1.91-4.39c0-1.82-0.64-3.27-1.91-4.33c-1.28-1.06-3.03-1.59-5.25-1.59h-4.43v12H49.62z"/>
		<path class="st0" d="M92.59,23.31h1.7l10.77,26.4h-1.97l-3.6-9.01H87.41L83.8,49.7h-1.97L92.59,23.31z M98.87,39.15l-5.43-13.57
			l-5.42,13.57H98.87z"/>
		<path class="st0" d="M136.41,49.18c-1.74-0.69-3.27-1.66-4.56-2.9c-1.3-1.24-2.31-2.69-3.03-4.35c-0.72-1.66-1.07-3.47-1.07-5.41
			c0-1.94,0.36-3.74,1.07-5.41s1.72-3.11,3.03-4.35c1.3-1.24,2.82-2.2,4.57-2.9c1.75-0.69,3.65-1.04,5.71-1.04
			c1.73,0,3.35,0.24,4.86,0.73c1.51,0.49,2.84,1.17,4.02,2.05l-0.92,1.44c-2.13-1.66-4.75-2.5-7.85-2.5c-1.83,0-3.51,0.31-5.04,0.92
			c-1.52,0.61-2.84,1.46-3.95,2.55c-1.11,1.09-1.97,2.36-2.58,3.81c-0.61,1.45-0.92,3.01-0.92,4.69s0.31,3.24,0.92,4.69
			c0.61,1.45,1.47,2.72,2.58,3.81c1.11,1.09,2.43,1.94,3.95,2.55c1.53,0.61,3.21,0.92,5.04,0.92c3.1,0,5.71-0.83,7.85-2.5l0.92,1.44
			c-1.17,0.86-2.5,1.54-4.01,2.04c-1.51,0.49-3.13,0.74-4.88,0.74C140.06,50.21,138.16,49.87,136.41,49.18z"/>
		<path class="st0" d="M175.69,23.31h13.49v1.55h-11.68v10.85h11.28v1.54h-11.28v10.91h11.68v1.55h-13.49V23.31z"/>
		<path class="st0" d="M214.01,23.31h5.3c2.69,0,4.77,0.58,6.25,1.73c1.48,1.15,2.22,2.8,2.22,4.94c0,2.96-1.36,4.96-4.07,6
			c2.08,0.27,3.68,0.98,4.81,2.15c1.13,1.17,1.69,2.7,1.69,4.58c0,2.2-0.76,3.91-2.27,5.14c-1.51,1.23-3.6,1.85-6.28,1.85h-7.65
			V23.31z M219.06,35.47c2.26,0,3.98-0.47,5.18-1.39c1.2-0.93,1.8-2.24,1.8-3.95c0-1.73-0.6-3.06-1.81-3.99
			c-1.2-0.93-2.93-1.4-5.17-1.4h-3.23v10.74H219.06z M221.29,48.23c2.25,0,4-0.48,5.24-1.45c1.24-0.96,1.86-2.33,1.86-4.1
			c0-1.78-0.63-3.17-1.87-4.16c-1.25-0.99-2.99-1.49-5.22-1.49h-5.47v11.2H221.29z"/>
		<path class="st0" d="M254.93,23.31h1.82v24.85h11.91v1.55h-13.73V23.31z"/>
		<path class="st0" d="M364.66,49.16c-1.65-0.7-3.09-1.68-4.31-2.94c-1.23-1.25-2.19-2.71-2.87-4.36c-0.69-1.65-1.03-3.43-1.03-5.33
			c0-1.75,0.3-3.44,0.91-5.07c0.6-1.63,1.49-3.1,2.67-4.4c1.17-1.3,2.61-2.33,4.31-3.1c1.7-0.76,3.63-1.14,5.81-1.14
			c2.22,0,4.21,0.39,5.97,1.18c1.76,0.79,3.22,1.82,4.37,3.09l-1.01,1.31c-1.07-1.22-2.41-2.19-4.05-2.93
			c-1.63-0.74-3.41-1.1-5.33-1.1c-1.84,0-3.49,0.33-4.93,0.99c-1.44,0.66-2.67,1.56-3.67,2.7c-1.01,1.14-1.77,2.43-2.3,3.88
			c-0.53,1.45-0.79,2.96-0.79,4.53c0,1.7,0.29,3.28,0.88,4.75c0.59,1.47,1.41,2.76,2.47,3.87c1.05,1.11,2.29,1.98,3.69,2.6
			c1.4,0.62,2.92,0.93,4.56,0.93c1.33,0,2.64-0.21,3.91-0.64c1.27-0.42,2.42-1.04,3.44-1.84c1.02-0.8,1.84-1.77,2.45-2.9
			c0.61-1.13,0.92-2.4,0.92-3.81v-1.05h-10.86v-1.47h12.73v1.95c0,1.93-0.37,3.61-1.11,5.03c-0.75,1.42-1.73,2.6-2.96,3.53
			c-1.23,0.93-2.58,1.63-4.06,2.09c-1.48,0.46-2.95,0.69-4.43,0.69C368.09,50.21,366.31,49.86,364.66,49.16z"/>
		<g>
			<path class="st0" d="M327.96,41.89c0.72-1.66,1.07-3.44,1.07-5.34c0-1.91-0.36-3.69-1.07-5.34c-0.72-1.65-1.71-3.11-2.98-4.36
				c-1.27-1.25-2.74-2.23-4.42-2.94c-1.68-0.7-3.48-1.05-5.4-1.05s-3.72,0.35-5.4,1.05c-1.68,0.71-3.15,1.68-4.42,2.94
				c-1.27,1.25-2.26,2.71-2.97,4.36c-0.72,1.65-1.08,3.43-1.08,5.34c0,1.9,0.36,3.68,1.08,5.34l1.81-0.65
				c-0.61-1.45-0.92-3.01-0.92-4.69c0-1.67,0.31-3.24,0.92-4.69c0.61-1.45,1.46-2.73,2.54-3.83c1.08-1.1,2.35-1.96,3.79-2.58
				c1.44-0.62,2.99-0.93,4.65-0.93c1.67,0,3.22,0.31,4.66,0.93c1.45,0.62,2.71,1.48,3.79,2.58c1.08,1.1,1.93,2.37,2.54,3.83
				c0.61,1.45,0.92,3.01,0.92,4.69c0,1.67-0.31,3.24-0.92,4.69L327.96,41.89z"/>
			<path class="st0" d="M283.79,49.92c9.32-3.26,20.01-5.12,31.36-5.12s22.04,1.86,31.36,5.12h4.43
				c-10.37-4.25-22.64-6.71-35.79-6.71s-25.42,2.47-35.79,6.71H283.79z"/>
		</g>
	</g>
</g>
</svg>
