<svg xmlns="http://www.w3.org/2000/svg" width="26" height="21" fill="none"><path fill="#FF00C7" d="M25.36 2.765c-.948.392-1.896.706-3.002.785 1.106-.628 1.896-1.648 2.291-2.824-1.027.627-2.133 1.02-3.318 1.255C20.383.96 19.04.333 17.618.333c-2.844 0-5.214 2.275-5.214 5.178 0 .392.079.784.158 1.176-4.346-.235-8.138-2.275-10.745-5.412a4.91 4.91 0 0 0-.711 2.588c0 1.805.948 3.373 2.291 4.315-.869 0-1.659-.236-2.37-.628v.079c0 2.51 1.817 4.55 4.187 5.02-.474.079-.869.157-1.343.157-.316 0-.632 0-.948-.078.632 2.04 2.607 3.53 4.82 3.608-1.739 1.412-4.03 2.197-6.479 2.197-.395 0-.869 0-1.264-.079 2.37 1.412 5.135 2.275 8.058 2.275 9.56 0 14.774-7.845 14.774-14.67v-.627c.948-.784 1.817-1.647 2.528-2.667Z"/></svg>
