<svg width="26" height="19" viewBox="0 0 26 19" fill="none" xmlns="http://www.w3.org/2000/svg">
    <path fill-rule="evenodd" clip-rule="evenodd" d="M24.6931 2.24672C25.4382 3.04356 25.7043 4.79662 25.7043 4.79662C25.7043 4.79662 25.9704 6.86842 25.9704 8.99334V10.9058C25.9704 12.9776 25.7043 15.0494 25.7043 15.0494C25.7043 15.0494 25.4382 16.8024 24.6931 17.5993C23.8279 18.5108 22.8324 18.5991 22.2949 18.6468C22.2372 18.6519 22.1848 18.6566 22.1384 18.6617C18.5725 18.9273 13.1971 18.9273 13.1971 18.9273C13.1971 18.9273 6.54436 18.8742 4.52192 18.6617C4.43005 18.6451 4.32114 18.631 4.1991 18.6152C3.54345 18.5306 2.50882 18.3971 1.70116 17.5461C0.956048 16.7493 0.689938 14.9962 0.689938 14.9962C0.689938 14.9962 0.423828 12.9244 0.423828 10.8526V8.94022C0.423828 6.86842 0.689938 4.79662 0.689938 4.79662C0.689938 4.79662 0.956048 3.04356 1.70116 2.24672C2.56636 1.33515 3.56179 1.24685 4.09937 1.19916C4.15702 1.19405 4.20942 1.1894 4.25581 1.18426C7.82169 0.91864 13.1971 0.91864 13.1971 0.91864C13.1971 0.91864 18.5725 0.91864 22.1384 1.18426C22.1848 1.1894 22.2372 1.19405 22.2949 1.19916C22.8324 1.24685 23.8279 1.33515 24.6931 2.24672ZM10.0038 6.21532V13.6307L17.4549 9.95045L10.0038 6.21532Z" fill="#FF00C7"/>
</svg>
